<?xml version="1.0" encoding="UTF-8"?>
<svg xmlns="http://www.w3.org/2000/svg" xmlns:xlink="http://www.w3.org/1999/xlink" viewBox="0 0 144 144" width="144px" height="144px">
<g id="surface29668746">
<path style=" stroke:none;fill-rule:nonzero;fill:rgb(100%,100%,100%);fill-opacity:1;" d="M 60 70.421875 L 60 94.5 C 60 96.984375 57.984375 99 55.5 99 C 53.015625 99 51 96.984375 51 94.5 L 51 55.5 C 51 53.523438 52.292969 51.777344 54.1875 51.195312 C 56.066406 50.625 58.128906 51.34375 59.230469 52.984375 L 59.980469 54.09375 L 60 54 L 105.703125 121.636719 C 121.570312 110.839844 132 92.640625 132 72 C 132 38.863281 105.136719 12 72 12 C 38.863281 12 12 38.863281 12 72 C 12 105.136719 38.863281 132 72 132 C 81.246094 132 89.96875 129.847656 97.789062 126.109375 Z M 84 49.5 C 84 47.015625 86.015625 45 88.5 45 C 90.984375 45 93 47.015625 93 49.5 L 93 87.871094 L 84 74.957031 Z M 84 49.5 "/>
</g>
</svg>
